<?xml version="1.0" encoding="utf-8"?>
<!-- Generator: Adobe Illustrator 17.0.0, SVG Export Plug-In . SVG Version: 6.00 Build 0)  -->
<!DOCTYPE svg PUBLIC "-//W3C//DTD SVG 1.1//EN" "http://www.w3.org/Graphics/SVG/1.1/DTD/svg11.dtd">
<svg version="1.1" id="Layer_1" xmlns="http://www.w3.org/2000/svg" xmlns:xlink="http://www.w3.org/1999/xlink" x="0px" y="0px"
	 width="256px" height="256px" viewBox="0 0 256 256" enable-background="new 0 0 256 256" xml:space="preserve">
<g>
	<path fill="#F4F4F4" d="M78.893,53.49c0,0,68.28-29.648,99.725,9.433l-5.84,141.502c0,0-34.14,26.054-67.831,0l1.348-33.633
		c0,0-13.926-3.346-17.519,6.159L78.893,53.49z"/>
	<path fill="#D8D7D6" d="M73.776,50.997l12.552,128.572c0,0,5.455-4.749,14.151-5.416l1.191,31.305c0,0,37.351,33.516,73.961,2.484
		l6.865-148.925C182.496,59.016,150.134,16.304,73.776,50.997z M168.613,202.145c0,0-22.01,22.14-57.966-1.656l-4.969-125.782
		c0,0,40.62,17.782,66.944,4.358L168.613,202.145z M133.275,74.527c-8.284-1.358-17.03-3.912-25.471-7.993
		c0,0,7.028-7.421,25.594-4.768L133.275,74.527z M175.065,66.531c-1.523,5.994-15.465,10.232-33.125,9.009l1.656-19.052
		c0,0-25.627-11.68-47.419,4.62l4.162,105.418c-3.4-0.458-6.527-0.218-9.381,2.354L82.492,56.227c0,0,50.731-20.223,87.145,2.027
		C170.966,59.065,175.968,62.979,175.065,66.531z"/>
	<path fill="#D3D3D3" d="M110.453,111.97l0.36,5.786c0,0,31.145,14.071,57.653,4.572l0.214-6.576
		C168.68,115.753,149.106,127.913,110.453,111.97z"/>
	<path fill="#D3D3D3" d="M110.453,126.615l0.36,5.786c0,0,31.145,14.071,57.653,4.572l0.214-6.576
		C168.68,130.397,149.106,142.557,110.453,126.615z"/>
	<path fill="#D3D3D3" d="M110.453,141.259l0.36,5.786c0,0,31.145,14.071,57.653,4.572l0.214-6.576
		C168.68,145.041,149.106,157.201,110.453,141.259z"/>
	<path fill="#D3D3D3" d="M112.456,155.85l0.335,5.388c0,0,29.002,13.103,53.685,4.258l0.199-6.123
		C166.676,159.371,148.45,170.695,112.456,155.85z"/>
	<path d="M168.564,91"/>
	<path fill="#FF7058" d="M138.095,177.189l-0.65,19.968c9.502,1.163,20.333,0.984,30.486-2.654l0.226-21.22
		C168.157,173.283,158.075,179.545,138.095,177.189z"/>
	<path fill="#84DBFF" d="M137.587,90.241c-7.647-0.999-16.693-3.252-27.135-7.559l0.36,20.43c0,0,11.256,5.085,25.992,7.077
		L137.587,90.241z"/>
	<path fill="#D3D3D3" d="M136.508,177.92c-7.125-1.034-15.461-3.19-25.009-7.128l0.347,5.578c0,0,10.547,4.764,24.458,6.74
		L136.508,177.92z"/>
	<path fill="#D3D3D3" d="M139.636,91.769l-0.169,5.191c9.318,1.21,20.029,1.115,30.053-2.477l0.207-6.34
		C169.726,88.143,159.632,94.41,139.636,91.769z"/>
	<path fill="#D3D3D3" d="M135.937,192.458c-6.827-1.046-14.77-3.144-23.825-6.879l0.339,5.456c0,0,9.996,4.514,23.286,6.499
		L135.937,192.458z"/>
	<path fill="#D3D3D3" d="M139.684,106.328l-0.165,5.078c9.234,1.255,19.923,1.227,29.914-2.353l0.202-6.201
		C169.635,102.851,159.588,109.09,139.684,106.328z"/>
</g>
</svg>
