<?xml version="1.0" encoding="utf-8"?>
<!-- Generator: Adobe Illustrator 17.0.0, SVG Export Plug-In . SVG Version: 6.00 Build 0)  -->
<!DOCTYPE svg PUBLIC "-//W3C//DTD SVG 1.1//EN" "http://www.w3.org/Graphics/SVG/1.1/DTD/svg11.dtd">
<svg version="1.1" id="Layer_1" xmlns="http://www.w3.org/2000/svg" xmlns:xlink="http://www.w3.org/1999/xlink" x="0px" y="0px"
	 width="256px" height="256px" viewBox="0 0 256 256" enable-background="new 0 0 256 256" xml:space="preserve">
<g>
	<polygon fill="#E6E6E6" points="163.979,212.294 68.747,211.065 67.79,192.346 163.979,192.346 	"/>
	<rect x="86.099" y="58.993" fill="#FFFFFF" width="101.108" height="141.824"/>
	<polygon fill="#CCCCCC" points="88.285,190.433 67.79,190.433 68.473,49.566 84.869,50.932 	"/>
	<path fill="#7F7F7F" d="M191.306,55.714H88.188c-0.617-5.739-5.93-10.626-12.219-10.626c-6.363,0-11.619,4.63-12.226,10.713
		c-0.034,0.337-0.048,1.826-0.053,2.646h0.001v143.044v1.653c0,6.512,5.293,11.883,11.806,11.883h90.395V204.37h25.414V55.714z
		 M88.285,61.179h97.829v137.452h-20.149h-77.68V61.179z M68.883,59.058c0-0.472,0.015-2.421,0.035-2.814
		c0.358-3.398,3.383-5.926,7.052-5.926c3.68,0,6.797,2.673,7.083,6.091c0.012,0.271,0.04,1.599,0.04,1.94v130.993
		c-2.186-1.421-4.467-2.26-7.105-2.26s-5.192,0.839-7.105,2.26V59.058z M160.973,209.562H75.497c-1.419,0-2.735-0.353-3.813-1.117
		l-1.585-1.536c-0.764-1.079-1.215-2.345-1.215-3.764v-1.653v-2.126c0-3.907,3.198-7.086,7.105-7.086s7.105,3.179,7.105,7.086v2.126
		v2.879h2.561h75.319V209.562z"/>
	<rect x="100" y="93" fill="#FF6E00" width="30" height="32"/>
	<rect x="140" y="93" fill="#00A200" width="25" height="32"/>
	<rect x="100" y="130" fill="#1AC8ED" width="30" height="32"/>
	<rect x="140" y="130" fill="#D00000" width="27" height="32"/>
	<rect x="137.199" y="71.29" fill="#4D5152" width="30.606" height="3.826"/>
	<rect x="99.216" y="171.851" fill="#4D5152" width="40.716" height="4.099"/>
	<rect x="144.031" y="171.851" fill="#4D5152" width="23.774" height="4.099"/>
	<rect x="99.216" y="180.049" fill="#4D5152" width="19.128" height="4.099"/>
	<rect x="123.536" y="180.049" fill="#4D5152" width="44.269" height="4.099"/>
	<rect x="124.629" y="79.488" fill="#4D5152" width="43.176" height="4.099"/>
</g>
</svg>
