<?xml version="1.0" encoding="utf-8"?>
<!-- Generator: Adobe Illustrator 17.0.0, SVG Export Plug-In . SVG Version: 6.00 Build 0)  -->
<!DOCTYPE svg PUBLIC "-//W3C//DTD SVG 1.1//EN" "http://www.w3.org/Graphics/SVG/1.1/DTD/svg11.dtd">
<svg version="1.1" id="Layer_1" xmlns="http://www.w3.org/2000/svg" xmlns:xlink="http://www.w3.org/1999/xlink" x="0px" y="0px"
	 width="256px" height="256px" viewBox="0 0 256 256" enable-background="new 0 0 256 256" xml:space="preserve">
<g>
	<rect x="124.872" y="49.767" fill="#E6EEFF" width="87.308" height="159.956"/>
	<circle fill-rule="evenodd" clip-rule="evenodd" fill="#00A200" cx="88.46" cy="129.946" r="22.84"/>
	<polygon fill-rule="evenodd" clip-rule="evenodd" fill="#FFFFFF" points="84.11,134.296 79.08,129.266 76.416,131.93 
		84.281,139.796 84.428,139.649 84.462,139.683 101.179,122.966 98.31,120.096 	"/>
	<path fill-rule="evenodd" clip-rule="evenodd" fill="#F9BC35" d="M129.258,49.767H46.593h-2.559v159.956h168.146V49.767H129.258z
		 M86.8,149.835c-11.025,0-19.963-8.938-19.963-19.963c0-11.025,8.938-19.963,19.963-19.963s19.963,8.938,19.963,19.963
		C106.762,140.898,97.825,149.835,86.8,149.835z M209.62,207.164h-80.362V52.326h80.362V207.164z"/>
	<path fill="#D00000" d="M170.419,110.574c-10.588,0-19.171,8.583-19.171,19.171c0,10.588,8.583,19.171,19.171,19.171
		s19.171-8.583,19.171-19.171C189.59,119.157,181.007,110.574,170.419,110.574z M178.699,135.125l-2.433,2.433l-5.872-5.872
		l-5.872,5.872l-2.433-2.433l5.872-5.872l-5.872-5.872l2.433-2.433l5.872,5.872l5.872-5.872l2.433,2.433l-5.872,5.872
		L178.699,135.125z"/>
</g>
</svg>
