<?xml version="1.0" encoding="utf-8"?>
<!-- Generator: Adobe Illustrator 17.0.0, SVG Export Plug-In . SVG Version: 6.00 Build 0)  -->
<!DOCTYPE svg PUBLIC "-//W3C//DTD SVG 1.1//EN" "http://www.w3.org/Graphics/SVG/1.1/DTD/svg11.dtd">
<svg version="1.1" id="Layer_1" xmlns="http://www.w3.org/2000/svg" xmlns:xlink="http://www.w3.org/1999/xlink" x="0px" y="0px"
	 width="256px" height="256px" viewBox="0 0 256 256" enable-background="new 0 0 256 256" xml:space="preserve">
<g>
	<rect x="177.099" y="167.531" fill="#B6AB91" width="29.813" height="33.504"/>
	<rect x="175.395" y="95.696" fill="#AFB6BB" width="30.38" height="58.489"/>
	<path fill="#CFC6A8" d="M199.363,78.093h-64.986c0,0,0.003,0.005,0.003-0.015c0-1.746-0.814-3.283-2.091-4.312l15.681-28.499
		c1.647-0.256,2.907-1.642,2.907-3.327c0-1.866-1.545-3.375-3.45-3.375s-3.45,1.514-3.45,3.38c0,0.594,0.157,1.151,0.432,1.636
		l-15.823,28.77l-16.19-29.437c0.236-0.457,0.372-0.973,0.372-1.52c0-1.866-1.545-3.378-3.45-3.378c-1.906,0-3.45,1.512-3.45,3.378
		c0,1.73,1.329,3.154,3.041,3.352l16.014,29.117c-1.227,1.029-2.006,2.51-2.006,4.216c0,0.02,0.003,0.015,0.003,0.015h-65.33
		c-6.835,0-12.517,5.629-12.517,12.464v115.816c0,6.835,5.682,12.266,12.517,12.266h141.775c6.835,0,12.375-5.431,12.375-12.266
		V90.557C211.738,83.722,206.198,78.093,199.363,78.093z M190,102.074c5.698,0,10.389,4.412,11.015,9.806h-8.868v3.123h8.782
		c-0.886,5.395-5.441,9.248-10.93,9.248c-6.124,0-11.088-4.965-11.088-11.089C178.911,107.039,183.876,102.074,190,102.074z
		 M169.717,201.034H58.984v-44.077c-0.568-6.96-0.568-13.939,0-20.926V95.696h110.732V201.034z M190,128.837
		c6.124,0,11.089,4.965,11.089,11.089c0,5.588-4.133,10.208-9.509,10.975v-8.071h-3.123v8.076
		c-5.393-0.752-9.545-5.379-9.545-10.979C178.911,133.801,183.876,128.837,190,128.837z M205.776,191.695
		c0,1.394-1.13,2.525-2.525,2.525h-20.788c-1.394,0-2.525-1.13-2.525-2.525v-0.346c0-1.394,1.13-2.525,2.525-2.525h20.788
		c1.394,0,2.525,1.13,2.525,2.525V191.695z M205.776,182.326c0,1.394-1.13,2.525-2.525,2.525h-20.788
		c-1.394,0-2.525-1.13-2.525-2.525v-0.346c0-1.394,1.13-2.525,2.525-2.525h20.788c1.394,0,2.525,1.13,2.525,2.525V182.326z
		 M205.776,172.956c0,1.394-1.13,2.525-2.525,2.525h-20.788c-1.394,0-2.525-1.13-2.525-2.525v-0.346c0-1.394,1.13-2.525,2.525-2.525
		h20.788c1.394,0,2.525,1.13,2.525,2.525V172.956z"/>
	<circle fill="#BAB195" cx="109.24" cy="41.324" r="3.502"/>
	<circle fill="#BAB195" cx="147.286" cy="41.892" r="3.502"/>
	<rect x="59.025" y="95.806" fill="#283238" width="110.651" height="105.119"/>
	<g>
		<path fill="#546A79" d="M200.213,116.649L190,115.572V114h11.233L200.213,116.649z M190,114.72l9.414,0.124l-0.413-2.52
			L190,112.448V114.72z"/>
	</g>
	<g>
		<path fill="#7A8389" d="M190.018,124.563c-6.367,0-11.547-5.18-11.547-11.547c0-6.367,5.18-11.547,11.547-11.547
			c6.367,0,11.547,5.18,11.547,11.547C201.564,119.383,196.385,124.563,190.018,124.563z M190.018,102.605
			c-5.74,0-10.411,4.67-10.411,10.411c0,5.74,4.67,10.411,10.411,10.411c5.74,0,10.411-4.67,10.411-10.411
			C200.429,107.276,195.758,102.605,190.018,102.605z"/>
	</g>
	<g>
		<path fill="#546A79" d="M187.01,149.954l0.736-9.954H190v11.205L187.01,149.954z M188.598,140l-0.124,9.198l2.52-0.533L190.87,140
			H188.598z"/>
	</g>
	<g>
		<path fill="#7A8389" d="M178.471,139.989c0-6.367,5.18-11.547,11.547-11.547c6.367,0,11.547,5.18,11.547,11.547
			c0,6.367-5.18,11.547-11.547,11.547C183.651,151.536,178.471,146.356,178.471,139.989z M200.429,139.989
			c0-5.74-4.67-10.411-10.411-10.411c-5.74,0-10.411,4.67-10.411,10.411c0,5.74,4.67,10.411,10.411,10.411
			C195.758,150.4,200.429,145.73,200.429,139.989z"/>
	</g>
</g>
</svg>
